<svg xmlns:dc="http://purl.org/dc/elements/1.1/" xmlns:cc="http://creativecommons.org/ns#" xmlns:rdf="http://www.w3.org/1999/02/22-rdf-syntax-ns#" xmlns:svg="http://www.w3.org/2000/svg" xmlns="http://www.w3.org/2000/svg" width="129.3103462457657" height="129.3103462457657" version="1.1"><rect id="backgroundrect" width="100%" height="100%" x="0" y="0" fill="none" stroke="none" style="" class="selected"/>
  <defs id="defs61"/>
  <metadata id="metadata64">
    <rdf:RDF>
      <cc:Work rdf:about="">
        <dc:format>image/svg+xml</dc:format>
        <dc:type rdf:resource="http://purl.org/dc/dcmitype/StillImage"/>
        <dc:title/>
      </cc:Work>
    </rdf:RDF>
  </metadata>
  
<g class="currentLayer" style=""><title>Layer 1</title><g id="g927" style="fill:#e0ce66;fill-opacity:1" class="">
    <g id="Layer1000" style="fill:#e0ce66;fill-opacity:1">
      <path d="m118.81815719604492,54.347585678100586 c0.4649257957935333,-0.002645833184942603 3.514407157897949,0.2751137614250183 3.904588222503662,0.6693428754806519 c0.048471663147211075,-0.576738715171814 -0.476593941450119,-1.4581451416015625 -0.741627037525177,-1.9554823637008667 c-0.9970822334289551,-1.8712390661239624 -3.355816125869751,-7.527527809143066 -4.493127346038818,-10.031993865966797 l-3.568197250366211,-8.04888916015625 c-1.1738767623901367,-2.4732985496520996 -4.5453033447265625,-10.655193328857422 -5.33111572265625,-11.864128112792969 c-1.1931649446487427,0.00968374963849783 -2.0396993160247803,0.18960040807724 -3.1000170707702637,0.3337189257144928 c-0.9900178909301758,0.1345406174659729 -2.1977615356445312,0.15107707679271698 -3.090359687805176,0.35686996579170227 c-0.9300368428230286,0.21455059945583344 -2.082773447036743,0.2180960327386856 -3.113616466522217,0.36435768008232117 c-3.1686763763427734,0.44971227645874023 -5.902695178985596,0.4097866415977478 -8.906721115112305,-0.7156449556350708 c-0.8187531232833862,-0.30670496821403503 -1.4589389562606812,-0.834972083568573 -2.253932237625122,-1.1928209066390991 c-1.5934795141220093,-0.7171530723571777 -3.481466770172119,-1.3643503189086914 -5.240522384643555,-1.5235766172409058 c-4.92066764831543,-0.44542601704597473 -7.543773174285889,-0.4214283227920532 -12.287222862243652,0.8734424114227295 c-0.43923476338386536,0.11998853832483292 -0.8721195459365845,0.34909123182296753 -1.2453407049179077,0.5153818726539612 c-3.3673255443573,1.500637173652649 -4.783904552459717,3.0064072608947754 -5.273251533508301,3.220825672149658 c-0.7109618186950684,-0.319510817527771 -3.7002241611480713,-3.3801047801971436 -7.549408435821533,-4.2174577713012695 c-4.703497886657715,-1.0233553647994995 -4.926568031311035,-1.6583552360534668 -5.152045726776123,0.2536560297012329 c-0.11424707621335983,0.9684543013572693 -0.9303013682365417,2.392441749572754 -0.8659547567367554,3.214846134185791 c0.8224572539329529,0.12647081911563873 1.5181790590286255,0.1386151909828186 2.3788952827453613,0.20272374153137207 c2.1760919094085693,0.16211019456386566 5.563366889953613,1.7585793733596802 7.287947654724121,3.123009204864502 c0.5421047210693359,0.42888957262039185 3.53059983253479,3.7328474521636963 3.762321949005127,3.7707884311676025 c0.36779728531837463,0.060086872428655624 3.681915044784546,-3.6055033206939697 5.463327884674072,-4.583879470825195 c2.4252235889434814,-1.33207106590271 4.95831823348999,-2.1024320125579834 7.9449076652526855,-2.184161901473999 c3.3038783073425293,-0.09038165956735611 6.0150370597839355,0.05606520548462868 8.787712097167969,1.3559101819992065 c2.9850027561187744,1.3994340896606445 3.7020761966705322,1.8982001543045044 7.4595561027526855,2.4693031311035156 c5.343339443206787,0.8122443556785583 8.945667266845703,-0.4204493463039398 12.416154861450195,-0.49088141322135925 c0.38835540413856506,0.9224168062210083 0.7718424797058105,1.7866253852844238 1.1841427087783813,2.7054967880249023 c0.8003116250038147,1.7837148904800415 1.683384895324707,3.532266616821289 2.3792126178741455,5.3584208488464355 c0.3670564293861389,0.9631097316741943 0.7538243532180786,1.8079771995544434 1.1704901456832886,2.7026655673980713 l4.1641974449157715,9.38821029663086 c0.8400256037712097,1.821232795715332 0.34742435812950134,1.3715205192565918 -1.6843109130859375,1.6993657350540161 c-3.0424964427948,0.4909078776836395 -5.784029483795166,1.4401005506515503 -8.378348350524902,2.9418225288391113 l-1.360487461090088,0.8466666340827942 c-3.1090922355651855,2.199719190597534 -5.929471015930176,5.1625494956970215 -6.789975643157959,9.078938484191895 c-1.0130366086959839,4.61107873916626 -0.6264539361000061,7.4295525550842285 0.3136900067329407,11.886088371276855 c0.13716000318527222,0.6496049761772156 0.2827337384223938,1.286536455154419 0.4562739133834839,1.9255579710006714 l0.5323945879936218,1.6688857078552246 c1.090956449508667,3.308164596557617 2.696262836456299,6.694249153137207 4.45214319229126,9.63705062866211 l1.521116018295288,2.331693410873413 c0.5617632865905762,0.7464953660964966 1.4537266492843628,1.7611459493637085 1.8656033277511597,2.57055926322937 c-0.21034374833106995,0.36380207538604736 -2.2587742805480957,1.9756965637207031 -2.748173952102661,2.3855361938476562 c-0.6228820085525513,0.5215731263160706 -2.141458034515381,2.190114974975586 -2.8282368183135986,2.35013484954834 c-0.35118141770362854,-5.394245147705078 -1.1449579000473022,-7.292313098907471 -2.3026950359344482,-12.267987251281738 c-0.41711562871932983,-1.7931605577468872 -1.0405267477035522,-3.6341843605041504 -1.5084688663482666,-5.659887313842773 c-0.4529666602611542,-1.961223840713501 -0.9372864365577698,-3.8586037158966064 -1.3349287509918213,-5.833294868469238 c-0.6525418162345886,-3.2400875091552734 -1.077912449836731,-10.058293342590332 -0.23828373849391937,-13.320209503173828 c0.8853751420974731,-3.439265727996826 0.8828616738319397,-4.954005241394043 2.397125005722046,-8.37736988067627 l1.1786657571792603,-2.405565023422241 c-0.8107627034187317,-0.3604418635368347 -14.768061637878418,-0.1716351956129074 -17.095361709594727,-0.21542373299598694 c-3.8165879249572754,-0.0717814490199089 -18.095012664794922,-0.5494337677955627 -21.316181182861328,0.07350124418735504 c-0.9811543822288513,0.18975915014743805 -2.3573050498962402,0.23542624711990356 -3.4032559394836426,0.6124045252799988 c-2.067824602127075,0.7452782988548279 -4.1390886306762695,1.5307996273040771 -5.803079128265381,2.879486560821533 c-1.8155707120895386,1.4715330600738525 -2.71335506439209,2.5663259029388428 -3.9607858657836914,4.727812767028809 c-0.5594349503517151,0.969327449798584 -1.8496755361557007,5.494575023651123 -1.1808353662490845,7.086546897888184 c0.21216937899589539,-0.39483770728111267 0.3120231032371521,-0.9638505578041077 0.44034600257873535,-1.4195159673690796 c0.1744927018880844,-0.6198393702507019 0.30215415358543396,-0.9064359664916992 0.4864364266395569,-1.444466233253479 c1.1847511529922485,-3.4587655067443848 4.059978008270264,-6.299649238586426 7.371344566345215,-7.756498336791992 l0.3803914487361908,-0.17954623699188232 c2.856388568878174,-1.2680155038833618 5.86300802230835,-1.504394292831421 9.15355110168457,-1.5441875457763672 c8.658304214477539,-0.10453686863183975 17.060598373413086,0.7917391061782837 25.716413497924805,0.5570537447929382 c1.2635440826416016,-0.034157704561948776 2.2652828693389893,-0.24172332882881165 3.5180320739746094,-0.2633662521839142 c-0.17245540022850037,0.8215312361717224 -0.7769489288330078,1.4761897325515747 -1.0516128540039062,2.2221293449401855 c-2.204375982284546,5.985694885253906 -2.221362352371216,12.854754447937012 -0.7199311852455139,18.792003631591797 c0.4374091625213623,1.729448914527893 0.845475971698761,3.3301515579223633 1.318894863128662,4.883917331695557 c1.498441219329834,4.918127536773682 3.1218714714050293,9.571168899536133 3.506284713745117,14.917684555053711 c0.17655643820762634,2.456655979156494 0.13536083698272705,5.960956573486328 -1.1637697219848633,8.05613899230957 c-0.44066351652145386,0.7107236981391907 -0.7922418117523193,1.1361737251281738 -1.4075567722320557,1.6499944925308228 c-2.559129238128662,2.13698673248291 -6.777010440826416,2.143918514251709 -9.01781940460205,-0.24399873614311218 c-0.547925591468811,-0.5838295221328735 -1.0318750143051147,-0.9685866236686707 -1.4933083057403564,-1.6951323747634888 c-2.8271255493164062,-4.452064037322998 -0.6589712500572205,-9.8860502243042 3.6637117862701416,-12.25922966003418 c0.40520936250686646,-0.22238227725028992 1.7413816452026367,-0.5417608022689819 1.9723364114761353,-0.9577915668487549 l-16.2547550201416,-0.15946435928344727 c0.09154582768678665,0.5776118636131287 0.3987005949020386,1.2200995683670044 0.6080918312072754,1.6987836360931396 l9.156488418579102,0.11575520038604736 c-0.1317889541387558,0.7300383448600769 0.06619874387979507,0.2396860271692276 -0.399414986371994,0.7719218134880066 l-2.101611852645874,2.9815099239349365 c-0.12655019760131836,0.24032102525234222 -0.02487083151936531,0.07027332484722137 -0.1580885350704193,0.26839330792427063 c-0.1196710392832756,0.17809103429317474 -0.09114895761013031,0.13588999211788177 -0.2103966474533081,0.2657739520072937 l-5.528415679931641,-0.03537479043006897 l-0.6454245448112488,1.7410905361175537 l5.662215232849121,0.0029368747491389513 c0.16938625276088715,3.027759075164795 -0.0683683305978775,4.031429767608643 1.0794999599456787,6.522984027862549 c0.004312708042562008,0.009339791722595692 0.1022879108786583,0.24831144511699677 0.12464520335197449,0.2987939417362213 c0.6371960043907166,1.4407620429992676 2.324549674987793,2.6734557151794434 2.677900552749634,3.5064167976379395 c-1.615386962890625,-0.022939374670386314 -2.750317335128784,-0.6162409782409668 -4.324852466583252,-0.7454370260238647 c-0.13120687007904053,0.7330545783042908 -1.0303138494491577,3.6007936000823975 -1.3522059917449951,4.17041540145874 c-0.27871209383010864,0.49320974946022034 -2.36802077293396,2.892054557800293 -2.3767518997192383,3.1502082347869873 c-0.009419165551662445,0.2766483426094055 2.0820326805114746,3.2381293773651123 2.495126485824585,3.8436546325683594 c1.0934964418411255,-0.45907852053642273 4.052014350891113,-4.556998252868652 4.373218059539795,-5.7991108894348145 c0.5402791500091553,0.026722915470600128 1.0015801191329956,0.1931193619966507 1.4479587078094482,0.25018998980522156 c2.3485474586486816,0.30051374435424805 4.806737899780273,0.19502437114715576 6.964547634124756,-0.5781145095825195 c4.404306888580322,-1.577869176864624 7.19058084487915,-3.4061927795410156 10.675168991088867,-6.442683219909668 l5.758391380310059,-5.16871452331543 c0.9019116163253784,-0.7587984800338745 1.581864356994629,-1.4801055192947388 2.543862819671631,-2.157676935195923 c0.9431072473526001,-0.6642099618911743 1.8023945093154907,-1.2911136150360107 2.9406583309173584,-1.7685014009475708 l2.2661824226379395,-0.702283501625061 c-0.13483165204524994,-0.2614876925945282 -1.0123223066329956,-0.8834966421127319 -1.3171486854553223,-1.1141602993011475 c-2.000488042831421,-1.514474868774414 -4.099163055419922,-4.292547225952148 -5.381703853607178,-6.387650012969971 c-0.6390745639801025,-1.0438870191574097 -1.1163034439086914,-1.8763984441757202 -1.737465739250183,-2.958279609680176 c-1.4198335409164429,-2.4732189178466797 -2.6966333389282227,-5.556778907775879 -3.4582626819610596,-8.453225135803223 c-1.2187765836715698,-4.634944438934326 -1.9480741024017334,-9.998153686523438 0.40555331110954285,-14.042892456054688 c1.085691213607788,-1.865920901298523 3.127216100692749,-3.531552314758301 4.935246467590332,-4.495800018310547 c1.525904893875122,-0.813646674156189 3.3405230045318604,-1.615386962890625 5.095080852508545,-1.9744795560836792 c0.7328957915306091,-0.15012456476688385 1.231000304222107,-0.2480468600988388 1.9067726135253906,-0.4087018668651581 c1.0924381017684937,-0.2597414553165436 3.251967191696167,-0.19645310938358307 4.5815510749816895,-0.20383498072624207 z" style="fill:#e0ce66;fill-opacity:1;fill-rule:evenodd" id="path4" stroke-width="0"/>
      <path d="m21.17755126953125,92.31314659118652 c0.17060332000255585,-0.6778095364570618 0.6337563991546631,-1.0215033292770386 1.0717211961746216,-1.7274380922317505 l1.7822597026824951,-3.440059185028076 c0.06876520812511444,-0.234949991106987 0.10088562220335007,-0.393832266330719 0.14795498549938202,-0.5547783374786377 c0.0471222922205925,-0.16094602644443512 0.052625622600317,-0.17256124317646027 0.10300227999687195,-0.3155685365200043 c0.014816666021943092,-0.041962914168834686 0.061727289110422134,-0.15549561381340027 0.07649103552103043,-0.1969558298587799 c0.07194020599126816,-0.20084519684314728 0.26265186071395874,-0.8095720410346985 0.3001168668270111,-0.9360693097114563 c0.525885820388794,-1.7747985124588013 1.1239500045776367,-8.405150413513184 0.47667330503463745,-9.590298652648926 c-0.066383957862854,0.06421437114477158 -0.8402901887893677,2.2076566219329834 -0.9783761501312256,2.536057710647583 l-2.42154598236084,5.049625396728516 c-1.5120407342910767,2.7666685581207275 -3.425560235977173,5.269784927368164 -5.589296340942383,7.549567699432373 l-2.414031744003296,2.15915846824646 c-0.41962912678718567,0.32220956683158875 -0.22762103378772736,0.06559020280838013 -0.3886728882789612,0.43439289927482605 c0.33760830760002136,0.34477850794792175 0.021219583228230476,0.10773833096027374 0.5012795925140381,0.30765748023986816 l2.2487995624542236,0.911595344543457 c0.8072172403335571,0.3405187129974365 1.64348566532135,1.1522603034973145 2.417577028274536,1.6262348890304565 c0.9430807828903198,0.5775589346885681 1.621287226676941,1.4016565084457397 2.467292308807373,2.0980398654937744 l2.2820842266082764,2.1459031105041504 c0.027516664937138557,0.029818540439009666 0.10980207473039627,0.11313582956790924 0.13686895370483398,0.14358936250209808 l3.652519702911377,3.385925769805908 c1.384299874305725,0.9454091191291809 2.4237418174743652,2.3936057090759277 3.9566054344177246,3.0863378047943115 l0.9925578832626343,0.6816459894180298 c0.8460845351219177,0.8166099786758423 2.9768004417419434,1.6371886730194092 4.130119323730469,2.0679831504821777 l0.4924953877925873,0.20505206286907196 c1.3168575763702393,0.6883399486541748 4.602797508239746,1.0902155637741089 6.007523059844971,0.9836678504943848 c0.8223513960838318,-0.06236228719353676 1.881108045578003,-0.25516414642333984 2.7867238521575928,-0.2469620704650879 l2.1876542568206787,3.368807077407837 c0.6150768995285034,0.7710751295089722 1.2299948930740356,1.7837942838668823 1.9523603916168213,2.4576351642608643 c0.0191558338701725,0.01772708259522915 0.049979787319898605,0.04450291395187378 0.07032624632120132,0.06127749755978584 l8.061933517456055,6.31618595123291 c0.595206618309021,0.3575843572616577 1.0589947700500488,0.5744368433952332 1.6926188468933105,0.9266236424446106 l2.416280508041382,1.039283275604248 c0.43526601791381836,0.1635124832391739 0.9231312274932861,0.46307373046875 1.418192982673645,0.4220368564128876 c1.4342796802520752,-0.11885082721710205 2.898404598236084,-1.0067659616470337 4.229523181915283,-1.5516488552093506 l0.20949707925319672,-0.07672916352748871 c0.8477779030799866,-0.3360472619533539 2.235173463821411,-1.151175618171692 2.8868422508239746,-1.7459324598312378 c-0.10567457973957062,-0.633677065372467 -1.4398359060287476,-2.3639726638793945 -1.8562371730804443,-2.955766201019287 c-0.22378456592559814,-0.3179762363433838 -0.36456936597824097,-0.5925872921943665 -0.598778486251831,-0.8650551438331604 c-1.4973299503326416,0.5271293520927429 -3.06575345993042,2.1267738342285156 -4.704714775085449,2.2380309104919434 c-1.4529857635498047,0.09863665699958801 -4.097284317016602,-2.017289161682129 -5.339344501495361,-2.7184877395629883 l-2.587360382080078,-1.9904602766036987 c-0.23952728509902954,-0.17634478211402893 -0.34763601422309875,-0.3089275062084198 -0.5825859904289246,-0.544089138507843 c-1.4330097436904907,-1.4343327283859253 -2.874168634414673,-2.6267037391662598 -3.9726126194000244,-4.332181453704834 l-0.3260195851325989,-0.48646289110183716 c-0.37777209281921387,-0.4509822428226471 -0.5027612447738647,-0.6437576413154602 -0.7805737257003784,-1.4621403217315674 c-0.3697816729545593,-1.0887868404388428 -0.6135157942771912,-2.4394848346710205 -1.1046353578567505,-3.4101879596710205 c-2.3316140174865723,-0.08464020490646362 -5.263462066650391,1.7720203399658203 -9.334420204162598,0.6327509880065918 c-1.8475323915481567,-0.5169957876205444 -3.1287240982055664,-1.1989858150482178 -4.654787540435791,-2.118412971496582 c-0.2122751921415329,-0.12789957225322723 -0.5290608406066895,-0.3126581013202667 -0.7828226685523987,-0.4664074778556824 c-0.6229614615440369,-0.37713706493377686 -1.0480939149856567,-0.6520920991897583 -1.5909130573272705,-1.033409595489502 c-0.581554114818573,-0.40851664543151855 -6.269275665283203,-5.499919891357422 -6.959784984588623,-6.3344950675964355 c-0.22928789258003235,-0.2771510183811188 -0.052466873079538345,-0.09374187141656876 -0.338111013174057,-0.3439318835735321 c-1.101857304573059,-0.964855968952179 -2.916978359222412,-2.3939499855041504 -3.8502695560455322,-3.3911380767822266 z" style="fill:#e0ce66;fill-opacity:1;fill-rule:evenodd" id="path6" stroke-width="0"/>
      <path d="m12.314249038696289,48.769826889038086 c-0.021775206550955772,-0.8467459678649902 1.2265024185180664,-3.070727586746216 1.7171721458435059,-4.253017902374268 l1.8928555250167847,-4.0811448097229 c0.23873353004455566,-0.3759728968143463 0.4839758276939392,-0.8756914138793945 0.632327675819397,-1.2726192474365234 c0.11829520761966705,-0.3163358271121979 0.12361332774162292,-0.4266141653060913 0.25196269154548645,-0.7331339120864868 c0.2638160288333893,-0.6306079030036926 0.25614312291145325,-0.28024667501449585 0.4364301860332489,-0.9270206093788147 l2.0028162002563477,-4.240952968597412 c0.10927290469408035,-0.25304746627807617 0.22076831758022308,-0.45114102959632874 0.3182937204837799,-0.6437047719955444 c0.21695831418037415,-0.42809581756591797 0.3776133060455322,-0.9200884699821472 0.580575168132782,-1.3514652252197266 l1.9082807302474976,-3.97668719291687 c0.9657555818557739,-0.029950832948088646 1.61763596534729,0.3046676814556122 2.5868046283721924,0.44251561164855957 c2.59556245803833,0.3689614534378052 5.576807975769043,0.4482041299343109 8.263862609863281,0.5043487548828125 c-0.2215356081724167,-0.7410979270935059 -0.7778749465942383,-1.4501283168792725 -1.1115409135818481,-2.2291409969329834 l-0.8923072218894958,-2.287825584411621 c-2.338254928588867,-0.07823728770017624 -3.940809726715088,-0.2566193640232086 -5.991489410400391,-0.5454385280609131 c-0.9103253483772278,-0.12832291424274445 -4.745645999908447,-0.8525933027267456 -5.274785995483398,-1.143423318862915 c-0.48175328969955444,0.746098518371582 -0.5483224987983704,1.064233422279358 -0.9484253525733948,1.9285478591918945 c-0.20058061182498932,0.4333610236644745 -0.37570831179618835,0.642514169216156 -0.5490897297859192,0.9627393484115601 c-0.1749424934387207,0.3232150077819824 -0.22291143238544464,0.6183576583862305 -0.3954726755619049,0.9970557689666748 l-4.629308223724365,9.879541397094727 c-0.09935103356838226,0.20650728046894073 -0.18512894213199615,0.41997307538986206 -0.262810617685318,0.5713412165641785 l-7.129276752471924,15.247406959533691 c-0.2628370523452759,0.7631112337112427 -0.7680324912071228,1.0384365320205688 -0.7940145134925842,1.9704577922821045 c2.556403875350952,-0.08292040973901749 2.5341525077819824,-0.5213349461555481 6.078272342681885,-0.33652353286743164 c3.49406099319458,0.18229791522026062 4.157556533813477,0.8737863898277283 6.613656997680664,1.442667007446289 c0.5929047465324402,0.13729228079319 1.0953220129013062,0.4519347548484802 1.6324790716171265,0.7389282584190369 l2.5614311695098877,1.4440163373947144 c0.863229513168335,0.5168370604515076 1.8133747577667236,1.9631552696228027 2.4264934062957764,2.0996272563934326 c-0.08030103892087936,-0.7064903974533081 -0.4690532982349396,-1.500981092453003 -0.7058818340301514,-2.038614511489868 c-0.7113322615623474,-1.6145668029785156 -1.5648516416549683,-2.545027017593384 -2.759498119354248,-3.853259325027466 l-0.1316831260919571,-0.14861644804477692 c-0.32660165429115295,-0.3459162414073944 -0.5013324618339539,-0.38025912642478943 -0.7617089152336121,-0.6034880876541138 c-0.4950883090496063,-0.4245239496231079 -0.204231858253479,-0.4674658179283142 -0.6486259698867798,-0.6987380385398865 c-0.31284332275390625,-0.1627187430858612 -0.2987939417362213,-0.013969998806715012 -0.8447616100311279,-0.4405841529369354 c-0.02225145697593689,-0.01738312467932701 -0.050244372338056564,-0.046963538974523544 -0.07225770503282547,-0.06389687210321426 l-5.883407115936279,-2.3008694648742676 c-0.023309791460633278,-0.052625622600317 -0.08175624161958694,-0.03352270647883415 -0.1173691600561142,-0.059028539806604385 z" style="fill:#e0ce66;fill-opacity:1;fill-rule:evenodd" id="path8" stroke-width="0"/>
      <path d="m38.69693374633789,44.89922904968262 c-0.6875726580619812,-0.40774935483932495 -0.891883909702301,-0.4489979147911072 -1.361572265625,-1.0685726404190063 c-0.5606785416603088,-0.7396956086158752 -0.7340070605278015,-0.5145351886749268 -1.080320119857788,-1.5574697256088257 c-0.9077589511871338,-2.7333309650421143 -0.29379332065582275,-1.9537626504898071 -0.44539958238601685,-4.013437747955322 c-0.04651374742388725,-0.6317456364631653 -0.10662707686424255,-0.6058958172798157 -0.7489559650421143,-0.6326187252998352 c-1.6018139123916626,-0.06654270738363266 -1.9373055696487427,-0.027596039697527885 -3.58949613571167,-0.7166768312454224 c-0.6764072179794312,-0.2821516692638397 -0.7499085068702698,-0.26209622621536255 -0.8861160278320312,-1.036346435546875 l20.239221572875977,0.1829858273267746 c-0.13403791189193726,1.1059054136276245 -1.992788553237915,2.1681015491485596 -2.9864578247070312,2.4530842304229736 c-1.4476675987243652,0.4151577055454254 -3.196483850479126,0.3398837447166443 -4.9482903480529785,0.39377933740615845 l2.6899919509887695,1.6835436820983887 c4.496408462524414,3.7182953357696533 -1.8467386960983276,4.17208194732666 -3.9551236629486084,4.691432476043701 c-4.2293381690979,1.0417438745498657 -5.341196537017822,1.8757106065750122 -5.25787878036499,6.258770942687988 c0.031379584223032,1.6558682918548584 0.7884582877159119,3.9273691177368164 1.5048176050186157,5.486981391906738 c0.15184436738491058,0.33057039976119995 0.6007629036903381,1.2336461544036865 0.888312041759491,1.4111815690994263 c-0.06844770908355713,-1.2280369997024536 -0.35104915499687195,-2.2991762161254883 -0.35202810168266296,-3.5829873085021973 c-0.0023812497965991497,-2.9979143142700195 0.8373532891273499,-7.554991722106934 4.583165168762207,-7.66693639755249 c0.9328678846359253,3.7359695434570312 0.4668308198451996,1.980961799621582 0.38047081232070923,5.003905296325684 c1.9150540828704834,-2.1422781944274902 2.0043509006500244,-3.651461601257324 2.135345935821533,-6.6446661949157715 l3.2698001861572266,-1.4707393646240234 c0.668549120426178,-0.33022645115852356 3.323166608810425,-2.7483327388763428 3.9075515270233154,-3.509115695953369 c0.017356665804982185,-0.02251604199409485 0.042941875755786896,-0.054239578545093536 0.05987520515918732,-0.07688791304826736 c0.21806956827640533,-0.2926291227340698 0.023309791460633278,-0.022489583119750023 0.1679045706987381,-0.23907747864723206 c0.022410208359360695,-0.03360208123922348 0.08429624885320663,-0.1318947821855545 0.10630957782268524,-0.16644936800003052 c1.1314905881881714,-1.776729941368103 2.232712745666504,-4.178114414215088 2.1151320934295654,-6.432840824127197 c-1.3957563638687134,-0.19997207820415497 -19.106857299804688,-0.25759831070899963 -22.157848358154297,-0.2795587182044983 c-1.4660826921463013,-0.010451041162014008 -6.412652969360352,-0.23180145025253296 -7.485247611999512,0.028574999421834946 c-0.02225145697593689,0.5189537405967712 0.42150768637657166,1.7885568141937256 0.6545791029930115,2.1746103763580322 c0.3405187129974365,0.5640122890472412 0.9230782985687256,1.240472435951233 1.6384057998657227,1.4745228290557861 c1.5767842531204224,0.5159375071525574 0.8767232894897461,0.5409141182899475 1.6251765489578247,1.6093015670776367 c0.13086290657520294,0.18663707375526428 0.15970249474048615,0.18608145415782928 0.2865701913833618,0.41338497400283813 c0.13374687731266022,0.23944789171218872 0.13088937103748322,0.31503936648368835 0.2749285399913788,0.5537993907928467 c0.9135797023773193,1.5141044855117798 2.649113893508911,2.900388717651367 4.141178607940674,3.8486552238464355 c0.6937639713287354,0.44098103046417236 1.456928014755249,0.7151951789855957 2.2260982990264893,0.9352226257324219 c0.5309658050537109,0.15202957391738892 1.8671115636825562,0.7507815957069397 2.359898090362549,0.49064332246780396 z" style="fill:#e0ce66;fill-opacity:1;fill-rule:evenodd" id="path10" stroke-width="0"/>
      <path d="m41.02767562866211,17.865415573120117 c0.06490228325128555,-2.6030499935150146 0.05757332965731621,-1.2369270324707031 0.27770665287971497,-2.837629795074463 l0.4874947667121887,-2.211334228515625 c0.013599582016468048,-0.031273748725652695 0.03352270647883415,-0.06503458321094513 0.04831291735172272,-0.09419166296720505 l0.8771201372146606,-1.731195092201233 c0.31768521666526794,-0.6579128503799438 0.45693540573120117,-0.6827837228775024 0.8567207455635071,-1.244441270828247 c0.42150768637657166,-0.5920316576957703 0.5516033172607422,-0.6899539232254028 1.0422730445861816,-1.1729507446289062 c0.8695266246795654,-0.8556889295578003 1.5106914043426514,-1.30979323387146 2.8523669242858887,-1.6573764085769653 l0.05638270452618599,9.237900733947754 c-0.029818540439009666,1.7705122232437134 -1.2725398540496826,5.516853332519531 -2.128096342086792,7.283237934112549 c-0.6101027131080627,1.2594959735870361 -1.0628312826156616,2.361274003982544 -2.005991220474243,3.409050226211548 c-1.0478558540344238,1.1641401052474976 -0.76419597864151,0.9853347539901733 -2.048668622970581,1.8341444730758667 c-0.5553074479103088,0.3669506013393402 -0.8791574239730835,0.9022026658058167 -2.213742256164551,-0.021960414946079254 c-1.5602214336395264,-1.0803730487823486 -2.1080939769744873,-1.4802378416061401 -2.9634389877319336,-3.296628713607788 c-1.2887324094772339,-2.7370615005493164 -1.7882657051086426,-7.054637908935547 -0.5498834848403931,-9.842499732971191 l0.40026164054870605,-0.5340349674224854 c0.16925394535064697,0.15962311625480652 0.08228541165590286,0.014049374498426914 0.22076831758022308,0.2709862291812897 c0.3214952051639557,0.5967411994934082 0.12316353619098663,1.126278281211853 1.1047147512435913,2.620274543762207 c0.33133769035339355,0.5043487548828125 1.3931900262832642,1.8431932926177979 1.8994436264038086,2.193448781967163 c-0.2167995721101761,-0.9488222599029541 -0.5936720371246338,-0.837194561958313 -0.9949920773506165,-3.193838357925415 c-0.2482585310935974,-1.458489179611206 -0.515540599822998,-1.7593467235565186 -0.519271194934845,-3.909059762954712 c-0.0023812497965991497,-1.427135944366455 0.4787899851799011,-4.714160442352295 0.9923726320266724,-6.245330810546875 c0.14327186346054077,-0.4268522560596466 0.2764895558357239,-0.664818525314331 0.2891366481781006,-1.2968287467956543 l-2.500497579574585,2.4927453994750977 c-0.419893741607666,0.5117306113243103 -0.6489170789718628,0.9965266585350037 -1.0204979181289673,1.4757399559020996 c-0.21433895826339722,0.2764895558357239 -0.35282185673713684,0.35623499751091003 -0.5583236813545227,0.6704806089401245 c-0.2319866567850113,0.35480621457099915 -0.2462741583585739,0.5643033385276794 -0.4395522475242615,0.9457795023918152 c-1.7254271507263184,3.405742883682251 -2.4747800827026367,8.638143539428711 -0.8447616100311279,12.649675369262695 c0.7979568243026733,1.9636579751968384 1.4007041454315186,3.270726203918457 2.710523843765259,4.864973068237305 c0.018679583445191383,0.02264833264052868 0.045376040041446686,0.05360458046197891 0.06405562162399292,0.07649103552103043 l0.12665604054927826,0.15647457540035248 c0.018600206822156906,0.022859999909996986 0.04310062155127525,0.05585353821516037 0.06159500032663345,0.07842250168323517 c1.2915370464324951,1.5732123851776123 3.585315704345703,3.2876861095428467 3.7725348472595215,3.534780263900757 c0.6954043507575989,-0.5596730709075928 1.6042743921279907,-0.9187920093536377 3.3477725982666016,-2.4334521293640137 c1.0659267902374268,-0.9260945320129395 1.9429411888122559,-1.9876292943954468 2.7528836727142334,-3.176084518432617 c1.476851224899292,-2.166884422302246 1.6235891580581665,-3.3937573432922363 2.1803252696990967,-5.384323596954346 l0.25119540095329285,-0.6937110424041748 c0.18899185955524445,-0.8763263821601868 0.23939499258995056,-1.6767703294754028 0.3475830852985382,-2.707005023956299 c0.39708665013313293,-3.779413938522339 -0.7135282754898071,-7.544990539550781 2.251868486404419,-12.58326530456543 c1.0483585596084595,-1.7810955047607422 1.2982045412063599,-2.13238263130188 2.6146388053894043,-3.4825780391693115 c0.31194373965263367,-0.3200928866863251 1.1654366254806519,-1.164272427558899 1.5939292907714844,-1.3200855255126953 c-0.5632449388504028,-0.027992915362119675 -4.222802639007568,0.40600311756134033 -4.769352436065674,0.6544204354286194 c-1.2877269983291626,0.5854434967041016 -1.2131938934326172,0.2540793716907501 -2.3267722129821777,0.723529577255249 l-2.8144783973693848,1.4555522203445435 c-1.5983214378356934,1.063598394393921 -3.693741798400879,3.279933452606201 -4.469156265258789,5.033909320831299 c-0.5495924353599548,1.2431182861328125 -0.4739745557308197,0.5060949325561523 -0.943001389503479,2.3521459102630615 c-0.5802047252655029,2.283724546432495 -0.3736710250377655,3.4955954551696777 0.09252478927373886,5.594349384307861 c0.11226269602775574,0.5055393576622009 0.17258769273757935,1.330404281616211 0.537315845489502,1.4612935781478882 z" style="fill:#e0ce66;fill-opacity:1;fill-rule:evenodd" id="path12" stroke-width="0"/>
      <path d="m88.87378311157227,59.91796684265137 c-4.389092922210693,-0.15938499569892883 -2.130715847015381,0.2609056234359741 -2.1856698989868164,-4.463600158691406 c-1.841949701309204,-0.09260416030883789 -3.782350778579712,0.09030228853225708 -5.5287065505981445,-0.06924145668745041 c-1.747070074081421,-0.15957020223140717 -4.076382160186768,-0.051937706768512726 -5.884809494018555,-0.06175374612212181 c-3.2699851989746094,-0.017832916229963303 -10.933349609375,0.21111103892326355 -13.681921005249023,1.2253646850585938 c-3.3603932857513428,1.239943265914917 -6.205272197723389,3.792616605758667 -7.555229663848877,7.171239852905273 c-0.3966633081436157,0.9930870532989502 -1.1922389268875122,3.6102657318115234 -0.741891622543335,4.875238418579102 c0.24558624625205994,-0.5839883089065552 0.2646627128124237,-1.5002667903900146 0.5191653966903687,-2.147702217102051 c0.6727030873298645,-1.7111396789550781 1.6629326343536377,-3.754992723464966 3.015059232711792,-4.891643047332764 c1.9519898891448975,-1.641183853149414 4.21134614944458,-3.242018699645996 6.8479719161987305,-3.6849842071533203 c0.9061978459358215,-0.15224124491214752 1.3523646593093872,-0.30654624104499817 2.2901272773742676,-0.45497745275497437 c0.7472626566886902,-0.11821582168340683 1.6498357057571411,-0.1369747817516327 2.5332794189453125,-0.13713353872299194 c2.252159833908081,-0.000529166660271585 13.112431526184082,-0.05979583039879799 15.073814392089844,0.12361332774162292 l0.3952610194683075,0.07265458256006241 c0.0259820818901062,-0.03942291438579559 0.08646582812070847,0.019393956288695335 0.12774083018302917,0.03505728766322136 l0.10152062028646469,0.5188214182853699 c0.04270374774932861,0.5470260381698608 -0.12678833305835724,1.0875433683395386 -0.14657916128635406,1.5968925952911377 c-2.2072863578796387,0.0728927031159401 -4.644839286804199,-0.14671143889427185 -6.807702541351318,0.03749145567417145 c-2.122990131378174,0.18081623315811157 -3.6025400161743164,0.3669770658016205 -5.646234512329102,0.9446946978569031 c-1.7233635187149048,0.48725661635398865 -3.335575580596924,1.0792882442474365 -4.796128273010254,1.9553236961364746 c-0.7928239107131958,0.47558853030204773 -3.1262636184692383,2.3405568599700928 -3.3707387447357178,3.161532402038574 c0.4982897639274597,-0.057388123124837875 0.537395179271698,-0.34202685952186584 0.9028640985488892,-0.6611937284469604 c1.0994759798049927,-0.9603580832481384 3.7252800464630127,-2.027449131011963 5.256900310516357,-2.400061845779419 c5.718571662902832,-1.3913114070892334 8.659785270690918,-0.711094081401825 14.207754135131836,-0.581210196018219 c-0.10247312486171722,4.004574298858643 0.24571852385997772,7.646775245666504 1.162420392036438,11.041855812072754 c0.4985543489456177,1.8462624549865723 2.4441940784454346,7.996157646179199 3.3834121227264404,8.618431091308594 c-0.09596436470746994,-0.6262158155441284 -0.40819913148880005,-1.428882122039795 -0.5938042998313904,-2.0702850818634033 c-1.9191551208496094,-6.631781101226807 -2.054145574569702,-10.294962882995605 -1.7616751194000244,-17.444665908813477 l2.7274041175842285,0.029236456379294395 z" style="fill:#e0ce66;fill-opacity:1;fill-rule:evenodd" id="path14" stroke-width="0"/>
      <path d="m19.97115707397461,76.8193416595459 c-0.04762499779462814,-1.5381286144256592 -0.27895018458366394,-2.354341745376587 0.5107516646385193,-3.344015598297119 c0.33670875430107117,-0.4218780994415283 0.6517480611801147,-0.6795557737350464 1.1101386547088623,-0.8750564455986023 c2.3551619052886963,-1.004120111465454 3.48948335647583,-0.2484966516494751 5.185780048370361,0.7303557991981506 c0.859842836856842,0.4962260127067566 0.6866995692253113,0.5723995566368103 1.2884148359298706,1.0811667442321777 l0.30908623337745667,0.22375811636447906 c1.1517575979232788,0.7508345246315002 0.6344972252845764,0.3545151948928833 1.5338424444198608,1.2557919025421143 l1.8711597919464111,2.007922887802124 c0.07649103552103043,0.09808103740215302 0.10948457568883896,0.1535906195640564 0.17277291417121887,0.25175103545188904 c0.5892799496650696,0.9141618609428406 0.765466034412384,0.6891072988510132 1.120272159576416,1.22412109375 l3.5515284538269043,4.585017681121826 c1.4772480726242065,1.7903295755386353 2.7626466751098633,2.969259738922119 4.549139499664307,4.437671184539795 c0.21280436217784882,0.17499540746212006 0.36591872572898865,0.24185560643672943 0.5853641033172607,0.37769269943237305 c1.9826815128326416,1.228354573249817 2.3748207092285156,1.8660002946853638 5.569399356842041,2.970397472381592 c1.6760823726654053,0.5793845653533936 7.26818323135376,1.7100019454956055 7.992532730102539,0.8437033295631409 l-2.1008973121643066,-0.459104984998703 c-1.6915605068206787,-0.5181070566177368 -3.9277658462524414,-1.429279088973999 -5.43467378616333,-2.3009753227233887 c-0.7253286838531494,-0.4197085201740265 -1.2989188432693481,-0.8172714114189148 -2.0839641094207764,-1.2339900732040405 l-3.930967092514038,-2.8745124340057373 c-0.3251464366912842,-0.31339892745018005 -0.5037137269973755,-0.573643147945404 -0.8797130584716797,-0.9031022787094116 c-0.7878497242927551,-0.6902714371681213 -1.9599008560180664,-1.874414086341858 -2.0371856689453125,-3.01045560836792 c1.2223219871520996,-0.8779932856559753 4.173140525817871,0.05225520581007004 5.287380218505859,0.09514416009187698 c-0.44375914335250854,-1.5365147590637207 -6.755843639373779,-3.159574508666992 -8.286538124084473,-4.208885669708252 c-0.9602522850036621,-0.6583362221717834 -0.9957858324050903,-0.5448564291000366 -1.759055733680725,-1.4230085611343384 c-0.37967705726623535,-0.4368535280227661 -0.2759339213371277,-0.028204582631587982 -0.32848018407821655,-0.7249318957328796 c1.3535553216934204,-0.6030912399291992 2.93015456199646,0.2702718675136566 4.31940221786499,0.30445602536201477 c-0.42907479405403137,-0.8516672253608704 -0.19071164727210999,-0.6285176873207092 -0.9924784898757935,-1.1909688711166382 c-0.5435070395469666,-0.3812645673751831 -0.7087128758430481,-0.7443522214889526 -1.1887993812561035,-1.0058928728103638 c-1.663594126701355,-0.9063566327095032 -4.130516052246094,-2.1892154216766357 -5.935609340667725,-2.7603185176849365 l-3.308164596557617,-0.9698830842971802 c-0.942922055721283,-0.1969558298587799 -2.8189499378204346,-0.5955241322517395 -3.889136552810669,-0.21584707498550415 c-2.052981376647949,0.7284508347511292 -4.328794479370117,1.8513424396514893 -4.3175764083862305,4.361682415008545 c0.004683124832808971,1.0464534759521484 0.6371695399284363,2.5964884757995605 1.516274094581604,2.750317335128784 z" style="fill:#e0ce66;fill-opacity:1;fill-rule:evenodd" id="path16" stroke-width="0"/>
      <path d="m12.298585891723633,69.14679527282715 c1.7090495824813843,-0.7877703905105591 2.3141250610351562,-0.6507956385612488 3.6034395694732666,-1.1125993728637695 c1.1133136749267578,-0.3987535238265991 3.0975828170776367,-0.25865665078163147 4.494106292724609,-0.24876123666763306 c3.704483985900879,0.02651124820113182 6.762564182281494,0.5976937413215637 10.179182052612305,1.5948553085327148 c0.9750159978866577,0.2845064401626587 1.6873536109924316,0.6661149859428406 2.5532288551330566,1.0497608184814453 c0.31601831316947937,0.14001749455928802 0.5385064482688904,0.14652623236179352 0.846110999584198,0.27021893858909607 l2.3530187606811523,1.253383994102478 c0.2541322708129883,0.15208250284194946 0.44344162940979004,0.27185937762260437 0.6834452152252197,0.41304102540016174 l1.4249134063720703,0.9227607846260071 c1.9642401933670044,1.1372320652008057 3.5708165168762207,2.6481614112854004 5.313626766204834,4.0947442054748535 c2.2414438724517822,1.8604176044464111 7.531999111175537,7.244105815887451 9.259622573852539,9.558416366577148 c1.5452988147735596,2.070046901702881 5.598476886749268,6.315180778503418 5.86298131942749,8.323420524597168 c-1.6672453880310059,-0.00859895721077919 -3.546924591064453,-1.048570156097412 -6.7418742179870605,0.205978125333786 c-0.7317315936088562,0.28728458285331726 -1.8263392448425293,1.2853193283081055 -1.9070900678634644,1.2986807823181152 c0.6625960469245911,0.008175624534487724 1.984083890914917,-0.573881208896637 2.9285404682159424,-0.6344708204269409 c1.2005202770233154,-0.07704666256904602 2.40818452835083,0.005318124778568745 3.3815598487854004,0.22949956357479095 c3.1012074947357178,0.7144543528556824 5.302064895629883,3.1911659240722656 7.164889812469482,5.595487594604492 l0.39332956075668335,0.5794904232025146 c1.1283419132232666,1.4975152015686035 2.670121908187866,3.758035659790039 1.461214303970337,5.882110595703125 c-0.8611392974853516,1.512860894203186 0.15398749709129333,2.3836841583251953 1.3281817436218262,3.1930973529815674 c1.0981794595718384,0.757158100605011 1.8180314302444458,1.5837957859039307 2.7915656566619873,2.608765125274658 c1.1414653062820435,1.2017110586166382 2.138441801071167,2.7647898197174072 3.006777763366699,4.1958417892456055 l0.3793066442012787,0.5735636949539185 c0.6269037127494812,0.7546180486679077 1.817766785621643,2.9017117023468018 2.3770692348480225,3.8579952716827393 c0.4285985231399536,0.7326841354370117 0.9002712368965149,2.0028162002563477 1.4309989213943481,2.0337462425231934 c-0.2523331046104431,-1.6934654712677002 -2.216097116470337,-5.218191623687744 -3.0869200229644775,-7.048394203186035 l-2.4640378952026367,-4.857697010040283 c-0.014366873539984226,-0.023283332586288452 -0.038893748074769974,-0.05511270463466644 -0.05368395894765854,-0.07807853817939758 l-10.304938316345215,-16.918886184692383 c-1.73090398311615,-2.311955451965332 -3.313324213027954,-4.682595729827881 -5.136197090148926,-7.022887706756592 c-0.3241410255432129,-0.4161631166934967 -0.6937374472618103,-0.7694612145423889 -0.9528968334197998,-1.122177243232727 c-1.1462807655334473,-1.560089111328125 -2.456259250640869,-2.9783613681793213 -3.6904611587524414,-4.475241661071777 l-2.929757595062256,-3.137852430343628 c-0.7278157472610474,-0.694266676902771 -1.2822237014770508,-1.34725821018219 -2.077878713607788,-2.068803310394287 l-6.428581237792969,-5.464280128479004 c-0.618410587310791,-0.542739748954773 -1.4173728227615356,-0.9050601720809937 -2.053748607635498,-1.4012067317962646 c-0.590126633644104,-0.46005749702453613 -1.2877799272537231,-0.7172324657440186 -1.9527043104171753,-1.0785473585128784 c-1.689972996711731,-0.9183157682418823 -2.074068784713745,-0.9065947532653809 -3.571239709854126,-1.5429970026016235 c-1.9710134267807007,-0.8378295302391052 -5.310133934020996,-1.6553391218185425 -7.339779376983643,-1.729501724243164 c-2.47509765625,-0.09056686609983444 -5.337942123413086,-0.3320520520210266 -7.792031288146973,0.08530166000127792 l-2.369396686553955,0.6272476315498352 c-0.7315199971199036,0.255852073431015 -1.616260051727295,0.3875351846218109 -2.311267614364624,0.7401983141899109 c-1.5410125255584717,0.7820289134979248 -2.8046889305114746,1.0309224128723145 -2.7783894538879395,3.047973394393921 c0.47757288813591003,0.33154937624931335 0.625104546546936,0.7679001092910767 1.0578835010528564,0.8923866748809814 c0.5649118423461914,0.16248060762882233 1.3289755582809448,0.028601456433534622 1.6674834489822388,-0.28490331768989563 c1.2713228464126587,-1.1777397394180298 0.18063102662563324,-1.7634477615356445 0.0002645833301357925,-2.90067982673645 z" style="fill:#e0ce66;fill-opacity:1;fill-rule:evenodd" id="path18" stroke-width="0"/>
      <path d="m47.351566314697266,93.93681907653809 c-3.169046640396118,-0.0852222889661789 -6.492424964904785,-0.030612289905548096 -9.676314353942871,-0.027675414457917213 c-2.415513515472412,0.0023812497965991497 -2.6892776489257812,0.4325672686100006 -2.7012898921966553,-1.1759405136108398 c-0.006297083105891943,-0.8405547142028809 0.16774582862854004,-2.488088607788086 0.4082255959510803,-3.2372827529907227 c0.17856727540493011,-0.5564451813697815 0.4846372604370117,-1.0538089275360107 0.5531378984451294,-1.6599164009094238 c-0.30448248982429504,0.3443816304206848 -1.6786223649978638,1.0033528804779053 -2.6177873611450195,3.0107994079589844 c-0.5847555994987488,1.2497591972351074 -0.8563768267631531,3.367722272872925 -0.4242858290672302,4.897490501403809 c0.4582318365573883,1.6220810413360596 0.8823589086532593,2.4996774196624756 2.0954205989837646,3.677522897720337 c0.8127999901771545,0.7890932559967041 2.421837091445923,1.8338533639907837 3.501574993133545,2.133255958557129 c1.2556860446929932,0.3480328917503357 3.925490379333496,0.6026149988174438 5.123047351837158,0.6302639245986938 c5.022584915161133,0.11599332839250565 11.18584156036377,0.8613510131835938 15.950987815856934,0.9608079195022583 l-1.4305754899978638,-2.3255815505981445 c-1.1325223445892334,-0.06738937646150589 -2.0757620334625244,-0.2584978938102722 -3.173200845718384,-0.2625724971294403 c-1.0605558156967163,-0.0038629164919257164 -2.4041099548339844,0.006693957839161158 -3.4428374767303467,-0.10199687629938126 l-6.516952037811279,-0.38859352469444275 c-0.7321020364761353,-0.009895415976643562 -1.1432645320892334,-0.06566958129405975 -1.6856074333190918,-0.1257299929857254 l-1.3693774938583374,-0.22891747951507568 c-2.8803863525390625,-0.35104915499687195 -4.173590183258057,-0.39970600605010986 -5.856816291809082,-2.7865915298461914 c-0.31781747937202454,-0.45079705119132996 -0.746971607208252,-1.1353800296783447 0.08445499837398529,-1.3081793785095215 c0.15213540196418762,-0.031670622527599335 0.23084895312786102,-0.03254374861717224 0.38727062940597534,-0.038417499512434006 c2.630249261856079,-0.09882186353206635 8.571228981018066,0.41896769404411316 11.276567459106445,0.13546666502952576 c-0.03608916327357292,-0.43463101983070374 -0.34213268756866455,-1.2868539094924927 -0.485642671585083,-1.7782115936279297 z" style="fill:#e0ce66;fill-opacity:1;fill-rule:evenodd" id="path20" stroke-width="0"/>
      <path d="m16.940326690673828,72.64831352233887 c-0.6590241193771362,1.0297847986221313 -0.9699095487594604,2.02980375289917 -2.121931791305542,3.167670726776123 c-1.6603397130966187,1.6399139165878296 -4.000473499298096,2.4377384185791016 -6.546505928039551,1.4234846830368042 l-2.056368112564087,-1.5703020095825195 c-0.6387041211128235,-0.6103143692016602 -1.039918303489685,-1.1370731592178345 -1.2545747756958008,-2.108755588531494 c-0.24016228318214417,-1.0874903202056885 -0.15041561424732208,-2.0883562564849854 0.06490228325128555,-3.1922240257263184 c0.04863041266798973,-0.24944914877414703 0.09816040843725204,-0.6020328402519226 0.1641474962234497,-0.8298920392990112 c0.9206706285476685,-3.1790478229522705 4.4367451667785645,-5.4123430252075195 7.738532543182373,-5.411204814910889 c4.003066062927246,0.0013229165924713016 13.542326927185059,0.4131733179092407 16.096057891845703,-0.9810749292373657 c-0.23434144258499146,-0.10718269646167755 -4.662513732910156,0.0963347926735878 -5.725529670715332,0.09665228426456451 c-6.7257609367370605,0.0018520832527428865 -10.850905418395996,-2.1637887954711914 -16.298093795776367,0.903578519821167 l-2.6327362060546875,2.185828685760498 c-1.4965626001358032,1.7454562187194824 -2.6128132343292236,4.961254596710205 -1.8775889873504639,7.139648914337158 c0.00873124971985817,0.025876248255372047 0.03950228914618492,0.0792691633105278 0.10191749036312103,0.3148541748523712 c0.01693333312869072,0.0639762431383133 0.055165622383356094,0.2659062445163727 0.0731043741106987,0.34618082642555237 c0.1671372801065445,0.7482680678367615 0.20552831888198853,0.5823478698730469 0.4726516306400299,1.0286206007003784 c0.08972020447254181,0.15004520118236542 0.15308789908885956,0.2958570420742035 0.23180145025253296,0.45849645137786865 c0.5727964639663696,1.183481216430664 0.47786393761634827,1.0495491027832031 1.3919464349746704,1.7742693424224854 c1.951593041419983,1.5471774339675903 2.113041877746582,0.948637068271637 2.640223979949951,1.8138245344161987 c1.0530415773391724,0.04220103845000267 2.953120231628418,0.3711574673652649 4.057676315307617,0.09019645303487778 c0.7895695567131042,-0.20076583325862885 2.7052056789398193,-1.2049388885498047 3.3182716369628906,-1.8587243556976318 l1.3639534711837769,-1.807500958442688 c0.28651729226112366,-0.49019351601600647 1.0946077108383179,-2.3381757736206055 0.7981420159339905,-2.9836268424987793 z" style="fill:#e0ce66;fill-opacity:1;fill-rule:evenodd" id="path22" stroke-width="0"/>
      <path d="m35.18461990356445,63.56304740905762 c0.5066505670547485,0.37536436319351196 0.4928922653198242,0.4301595687866211 1.1905720233917236,0.7149305939674377 c5.010229110717773,2.0445940494537354 5.575008869171143,5.9536542892456055 6.276392459869385,6.707583904266357 c0.17618602514266968,-0.4255293309688568 -0.06659562885761261,-1.1076515913009644 -0.09011708199977875,-1.6975401639938354 c0.7069666385650635,0.1868487447500229 0.6383337378501892,0.29863518476486206 1.1033389568328857,0.7227622270584106 c0.2627312242984772,0.2396860271692276 0.5781939625740051,0.4318793714046478 0.8645524978637695,0.6518803834915161 c0.5697537064552307,0.4377266466617584 1.2211049795150757,1.0785739421844482 1.7568331956863403,1.4128484725952148 l1.9887405633926392,1.2009172439575195 c6.295495510101318,4.46389102935791 5.420042514801025,8.666823387145996 5.988208770751953,9.718992233276367 c0.8266376852989197,-1.5312230587005615 0.39399102330207825,-2.6922144889831543 0.29400497674942017,-4.496778964996338 c1.7367249727249146,0.15433144569396973 3.0780301094055176,2.203502893447876 4.056326866149902,3.527451276779175 l0.12186707556247711,0.15716248750686646 c0.9814189076423645,1.3526822328567505 1.5325723886489868,2.5525410175323486 2.186199188232422,4.191396713256836 c0.3692789375782013,0.9258564114570618 0.9334763884544373,3.307159185409546 1.0827014446258545,3.3638594150543213 c0.4725722670555115,-1.5716514587402344 0.12702645361423492,-4.450106143951416 -0.2954072952270508,-5.8709187507629395 c-1.798214077949524,-6.047289848327637 -5.000518798828125,-7.5699143409729 -9.812812805175781,-10.177780151367188 c-0.862250566482544,-0.4672276973724365 -1.4606322050094604,-0.6715389490127563 -2.282745361328125,-1.1754114627838135 c-0.4431241452693939,-0.2715418338775635 -0.6778095364570618,-0.3688555955886841 -1.0698691606521606,-0.5872427225112915 c-1.448805332183838,-0.8072172403335571 -3.374389886856079,-2.5189919471740723 -4.739798545837402,-3.567826747894287 c-1.3575769662857056,-1.042934536933899 -4.557474136352539,-3.2153754234313965 -6.098222255706787,-3.9752321243286133 c-0.6485730409622192,-0.31990769505500793 -1.6831731796264648,-0.7957078814506531 -2.5207645893096924,-0.8210549354553223 z" style="fill:#e0ce66;fill-opacity:1;fill-rule:evenodd" id="path24" stroke-width="0"/>
      <path d="m69.50494003295898,88.25727653503418 c-0.9237132668495178,-1.3173073530197144 -2.275019645690918,-2.8104569911956787 -3.477656602859497,-3.8309547901153564 c-0.44013434648513794,-0.37338000535964966 -0.5192447304725647,-0.4650845527648926 -0.8863540887832642,-0.9224432706832886 c-0.15779750049114227,-0.19666478037834167 -0.5647531151771545,-0.831823468208313 -0.7372350096702576,-0.9673960208892822 c0.11149541288614273,2.2727973461151123 0.3368939459323883,4.301807403564453 -0.08778874576091766,6.523566246032715 c-0.6772539019584656,3.5432469844818115 -1.4202303886413574,3.6227540969848633 -1.8225557804107666,4.852510929107666 c1.8719269037246704,-0.4679420590400696 3.645375967025757,-3.0939314365386963 4.161736965179443,-5.254703998565674 c0.5814482569694519,0.18753665685653687 0.7758905291557312,0.5829828381538391 1.0328803062438965,1.1658334732055664 c0.6026149988174438,1.3669962882995605 0.8526461720466614,3.35388445854187 0.8358187079429626,4.980357646942139 c-0.0129910409450531,1.2504472732543945 -0.21896915137767792,2.257266044616699 -0.5273410081863403,3.3336174488067627 c-0.3583781123161316,1.25092351436615 -1.0317955017089844,2.3304498195648193 -1.079182505607605,2.6670262813568115 c0.5191918611526489,-0.29567185044288635 1.433274269104004,-1.1917096376419067 1.8792823553085327,-1.6935713291168213 c2.6645126342773438,-2.9982054233551025 3.150367259979248,-7.371397018432617 0.7083954215049744,-10.853842735290527 z" style="fill:#e0ce66;fill-opacity:1;fill-rule:evenodd" id="path26" stroke-width="0"/>
      <path d="m49.709476470947266,88.27489280700684 c0.29678311944007874,0.11411479115486145 0.4787370562553406,0.21357165277004242 0.876538097858429,0.22090062499046326 l-1.5214334726333618,-1.0652389526367188 c-1.576069951057434,-1.2486745119094849 -0.9828212261199951,-1.8361552953720093 -2.166487693786621,-3.1043031215667725 c-0.23809853196144104,-0.25513768196105957 -1.3795109987258911,-0.914717435836792 -1.7257447242736816,-0.591740608215332 c-0.6296554207801819,0.5875866413116455 1.293574333190918,3.3422958850860596 4.041457176208496,4.337763786315918 c0.185631662607193,0.06717770546674728 0.1987285315990448,0.08847665786743164 0.4956703782081604,0.20261789858341217 z" style="fill:#e0ce66;fill-opacity:1;fill-rule:evenodd" id="path28" stroke-width="0"/>
    </g>
    <g aria-label="  5" style="font-size:3.17499995px;fill:#e0ce66;fill-opacity:1;stroke-width:0.26458332" id="text43">
      <path d="m151.39721298217773,69.7851390838623 l5.805339813232422,-22.289079666137695 h8.135930061340332 v30.848764419555664 h-6.250259876251221 v-8.34781265258789 l0.5720599889755249,-12.77596378326416 l-6.144330024719238,21.123777389526367 h-4.258659839630127 l-6.144320011138916,-21.123777389526367 l0.5720499753952026,12.77596378326416 v8.34781265258789 h-6.250259876251221 V47.49606132507324 h8.135939598083496 z" style="font-style:normal;font-variant:normal;font-weight:bold;font-stretch:normal;font-size:43.39166641px;font-family:'Roboto Condensed';-inkscape-font-specification:'Roboto Condensed, Bold';font-variant-ligatures:normal;font-variant-caps:normal;font-variant-numeric:normal;font-feature-settings:normal;text-align:start;writing-mode:lr-tb;text-anchor:start;fill:#e0ce66;fill-opacity:1;stroke-width:0.26458332" id="path863"/>
      <path d="M170.29632186889648,78.34482383728027 V47.49606132507324 h17.310049057006836 v5.1908979415893555 h-11.038599967956543 v5.868892192840576 h3.8349099159240723 q4.618840217590332,0.02119000069797039 7.330820083618164,2.7119789123535156 q2.7331700325012207,2.6907920837402344 2.7331700325012207,7.076570987701416 q0,4.428153038024902 -2.7543599605560303,7.224882125854492 q-2.7331700325012207,2.775542974472046 -7.373189926147461,2.775542974472046 zm6.271450042724609,-5.169712066650391 h3.7713499069213867 q1.9280500411987305,0 2.9026598930358887,-1.4407390356063843 q0.9958099722862244,-1.4407390356063843 0.9958099722862244,-3.4323489665985107 q0,-1.949234962463379 -0.9958099722862244,-3.2416629791259766 q-0.9746099710464478,-1.313614010810852 -2.9026598930358887,-1.313614010810852 h-3.7713499069213867 z" style="font-style:normal;font-variant:normal;font-weight:bold;font-stretch:normal;font-size:43.39166641px;font-family:'Roboto Condensed';-inkscape-font-specification:'Roboto Condensed, Bold';font-variant-ligatures:normal;font-variant-caps:normal;font-variant-numeric:normal;font-feature-settings:normal;text-align:start;writing-mode:lr-tb;text-anchor:start;fill:#e0ce66;fill-opacity:1;stroke-width:0.26458332" id="path865"/>
      <path d="m215.76433944702148,65.67479515075684 q0,6.525700092315674 -3.0509700775146484,9.809737205505371 q-3.0509800910949707,3.2840330600738525 -8.029999732971191,3.2840330600738525 q-4.9578399658203125,0 -8.051190376281738,-3.2840330600738525 q-3.0933499336242676,-3.2840371131896973 -3.0933499336242676,-9.809737205505371 v-5.127335071563721 q0,-6.674012184143066 3.072160005569458,-10.063984870910645 q3.0721700191497803,-3.4111618995666504 8.029999732971191,-3.4111618995666504 q4.979030132293701,0 8.051190376281738,3.4111618995666504 q3.072160005569458,3.3899729251861572 3.072160005569458,10.063984870910645 zm-6.22907018661499,-5.169710159301758 q0,-4.406966209411621 -1.250059962272644,-6.313826084136963 q-1.2500499486923218,-1.9068609476089478 -3.6442201137542725,-1.9068609476089478 q-2.3729801177978516,0 -3.623029947280884,1.8856730461120605 q-1.2288700342178345,1.8644859790802002 -1.250059962272644,6.165514945983887 v5.339209079742432 q0,4.195093154907227 1.250059962272644,6.059578895568848 q1.271239995956421,1.8432979583740234 3.665410041809082,1.8432979583740234 q2.3729801177978516,0 3.601840019226074,-1.8221110105514526 q1.2288700342178345,-1.8221110105514526 1.250059962272644,-5.9324541091918945 z" style="font-style:normal;font-variant:normal;font-weight:bold;font-stretch:normal;font-size:43.39166641px;font-family:'Roboto Condensed';-inkscape-font-specification:'Roboto Condensed, Bold';font-variant-ligatures:normal;font-variant-caps:normal;font-variant-numeric:normal;font-feature-settings:normal;text-align:start;writing-mode:lr-tb;text-anchor:start;fill:#e0ce66;fill-opacity:1;stroke-width:0.26458332" id="path867"/>
      <path d="m232.3752098083496,72.28524589538574 q-0.9958000183105469,2.5848560333251953 -2.5636699199676514,4.5552778244018555 q-1.5466699600219727,1.949233055114746 -4.745960235595703,1.949233055114746 l-1.9280500411987305,-0.06360000371932983 l-0.10593000054359436,-5.1908979415893555 l1.3559900522232056,0.08474999666213989 q1.483109951019287,0 1.991610050201416,-0.7627440094947815 q0.5296800136566162,-0.7839319705963135 0.8474900126457214,-2.1399219036102295 l0.3178099989891052,-1.1441160440444946 l-8.83512020111084,-22.077205657958984 h6.674009799957275 l4.618840217590332,13.665831565856934 l4.131529808044434,-13.665831565856934 h6.716390132904053 z" style="font-style:normal;font-variant:normal;font-weight:bold;font-stretch:normal;font-size:43.39166641px;font-family:'Roboto Condensed';-inkscape-font-specification:'Roboto Condensed, Bold';font-variant-ligatures:normal;font-variant-caps:normal;font-variant-numeric:normal;font-feature-settings:normal;text-align:start;writing-mode:lr-tb;text-anchor:start;fill:#e0ce66;fill-opacity:1;stroke-width:0.26458332" id="path869"/>
      <path d="m258.11782455444336,75.69640922546387 l-4.936649799346924,-8.2630615234375 V67.03078269958496 l4.936649799346924,-8.2630615234375 h3.7289700508117676 l-4.089159965515137,8.474934577941895 l4.089159965515137,8.453747749328613 zm7.24606990814209,0 l-4.936649799346924,-8.2630615234375 V67.03078269958496 l4.936649799346924,-8.2630615234375 h3.7289700508117676 l-4.089159965515137,8.474934577941895 l4.089159965515137,8.453747749328613 z" style="font-style:normal;font-variant:normal;font-weight:bold;font-stretch:normal;font-size:43.39166641px;font-family:'Roboto Condensed';-inkscape-font-specification:'Roboto Condensed, Bold';font-variant-ligatures:normal;font-variant-caps:normal;font-variant-numeric:normal;font-feature-settings:normal;text-align:start;writing-mode:lr-tb;text-anchor:start;fill:#e0ce66;fill-opacity:1;stroke-width:0.26458332" id="path871"/>
      <path d="m291.0005760192871,47.49606132507324 v5.1908979415893555 h-11.059789657592773 v25.657867431640625 h-6.250269889831543 V47.49606132507324 z" style="font-style:normal;font-variant:normal;font-weight:bold;font-stretch:normal;font-size:43.39166641px;font-family:'Roboto Condensed';-inkscape-font-specification:'Roboto Condensed, Bold';font-variant-ligatures:normal;font-variant-caps:normal;font-variant-numeric:normal;font-feature-settings:normal;text-align:start;writing-mode:lr-tb;text-anchor:start;fill:#e0ce66;fill-opacity:1;stroke-width:0.26458332" id="path873"/>
      <path d="m296.975399017334,69.48851585388184 l5.318019866943359,-14.068391799926758 h5.9960198402404785 v22.924701690673828 h-5.9960198402404785 V64.23406028747559 l-5.318019866943359,14.110769271850586 h-6.017199993133545 V55.42012596130371 h6.017199993133545 z" style="font-style:normal;font-variant:normal;font-weight:bold;font-stretch:normal;font-size:43.39166641px;font-family:'Roboto Condensed';-inkscape-font-specification:'Roboto Condensed, Bold';font-variant-ligatures:normal;font-variant-caps:normal;font-variant-numeric:normal;font-feature-settings:normal;text-align:start;writing-mode:lr-tb;text-anchor:start;fill:#e0ce66;fill-opacity:1;stroke-width:0.26458332" id="path875"/>
      <path d="m324.6884422302246,71.0563793182373 l4.279850006103516,-15.636255264282227 h7.521500110626221 v22.924701690673828 h-5.974830150604248 V66.03497886657715 l-3.8137199878692627,12.309844970703125 h-4.0044097900390625 l-3.6654000282287598,-11.843724250793457 v11.843724250793457 h-5.9960198402404785 V55.42012596130371 h7.41556978225708 z" style="font-style:normal;font-variant:normal;font-weight:bold;font-stretch:normal;font-size:43.39166641px;font-family:'Roboto Condensed';-inkscape-font-specification:'Roboto Condensed, Bold';font-variant-ligatures:normal;font-variant-caps:normal;font-variant-numeric:normal;font-feature-settings:normal;text-align:start;writing-mode:lr-tb;text-anchor:start;fill:#e0ce66;fill-opacity:1;stroke-width:0.26458332" id="path877"/>
      <path d="m352.74047470092773,78.34482383728027 v-8.792746543884277 h-5.2756500244140625 v8.792746543884277 h-5.996009826660156 V55.42012596130371 h5.996009826660156 v9.174117088317871 h5.2756500244140625 v-9.174117088317871 h5.9960198402404785 v22.924701690673828 z" style="font-style:normal;font-variant:normal;font-weight:bold;font-stretch:normal;font-size:43.39166641px;font-family:'Roboto Condensed';-inkscape-font-specification:'Roboto Condensed, Bold';font-variant-ligatures:normal;font-variant-caps:normal;font-variant-numeric:normal;font-feature-settings:normal;text-align:start;writing-mode:lr-tb;text-anchor:start;fill:#e0ce66;fill-opacity:1;stroke-width:0.26458332" id="path879"/>
      <path d="m374.05495834350586,78.34482383728027 q-0.3178099989891052,-0.7203720211982727 -0.5084999799728394,-1.779737949371338 q-1.6314200162887573,2.2034780979156494 -4.364590167999268,2.2034780979156494 q-2.7755401134490967,0 -4.724780082702637,-1.864480972290039 q-1.9280400276184082,-1.8644859790802002 -1.9280400276184082,-4.9790239334106445 q0,-3.495910882949829 2.245850086212158,-5.529894828796387 q2.2458600997924805,-2.0551719665527344 6.864699840545654,-2.0551719665527344 h1.6102399826049805 V62.496694564819336 q0,-2.817915916442871 -2.076359987258911,-2.817915916442871 q-2.2458600997924805,0 -2.2458600997924805,2.627229928970337 h-5.996009826660156 q0,-3.0086019039154053 2.2670400142669678,-5.148522853851318 q2.2882299423217773,-2.16110897064209 6.144330024719238,-2.16110897064209 q3.4111599922180176,0 5.657020092010498,1.7797369956970215 q2.2670400142669678,1.779736042022705 2.2670400142669678,5.8053297996521 v10.763167381286621 q0.042399998754262924,3.0509769916534424 0.8263099789619446,4.640024185180664 v0.3601900041103363 zm-3.5171000957489014,-4.301032066345215 q0.97461998462677,0 1.673799991607666,-0.4025590121746063 q0.699180006980896,-0.4025590121746063 1.0381799936294556,-0.9534299969673157 v-4.76715087890625 h-1.4195499420166016 q-1.6949900388717651,0 -2.500109910964966,1.0381790399551392 q-0.8051199913024902,1.0381799936294556 -0.8051199913024902,2.542480945587158 q0,2.542479991912842 2.0127999782562256,2.542479991912842 z" style="font-style:normal;font-variant:normal;font-weight:bold;font-stretch:normal;font-size:43.39166641px;font-family:'Roboto Condensed';-inkscape-font-specification:'Roboto Condensed, Bold';font-variant-ligatures:normal;font-variant-caps:normal;font-variant-numeric:normal;font-feature-settings:normal;text-align:start;writing-mode:lr-tb;text-anchor:start;fill:#e0ce66;fill-opacity:1;stroke-width:0.26458332" id="path881"/>
      <path d="m388.5894432067871,68.59864616394043 v-3.983220100402832 h2.817919969558716 q1.9280400276184082,0 1.9280400276184082,-2.4365429878234863 q0,-0.9110559821128845 -0.38137000799179077,-1.7161749601364136 q-0.36017999053001404,-0.8051180243492126 -1.5254900455474854,-0.8051180243492126 q-2.224669933319092,0 -2.224669933319092,2.3517940044403076 h-5.996009826660156 q0,-3.2840371131896973 2.309420108795166,-5.127336025238037 q2.309420108795166,-1.8644850254058838 5.59345006942749,-1.8644850254058838 q3.7289700508117676,0 5.953639984130859,1.7161740064620972 q2.2458600997924805,1.6949870586395264 2.2458600997924805,4.957837104797363 q0,3.2204749584198 -2.945039987564087,4.851900100708008 q3.305229902267456,1.3771770000457764 3.305229902267456,5.318021774291992 q0,3.262850046157837 -2.4153599739074707,5.0849609375 q-2.394170045852661,1.8221060037612915 -6.144330024719238,1.8221060037612915 q-3.0509700775146484,0 -5.635829925537109,-1.7161699533462524 q-2.5636699199676514,-1.737360954284668 -2.5636699199676514,-5.508707046508789 h5.9960198402404785 q0,1.0381790399551392 0.5932400226593018,1.8221110105514526 q0.5932499766349792,0.7627440094947815 1.94923996925354,0.7627440094947815 q1.2500499486923218,0 1.7373600006103516,-0.8474940061569214 q0.487309992313385,-0.868681013584137 0.487309992313385,-1.9068599939346313 q0,-2.775541067123413 -2.2670400142669678,-2.775541067123413 z" style="font-style:normal;font-variant:normal;font-weight:bold;font-stretch:normal;font-size:43.39166641px;font-family:'Roboto Condensed';-inkscape-font-specification:'Roboto Condensed, Bold';font-variant-ligatures:normal;font-variant-caps:normal;font-variant-numeric:normal;font-feature-settings:normal;text-align:start;writing-mode:lr-tb;text-anchor:start;fill:#e0ce66;fill-opacity:1;stroke-width:0.26458332" id="path883"/>
      <path d="m409.2682762145996,69.48851585388184 l5.318019866943359,-14.068391799926758 h5.996009826660156 v22.924701690673828 h-5.996009826660156 V64.23406028747559 l-5.318019866943359,14.110769271850586 h-6.017210006713867 V55.42012596130371 h6.017210006713867 z" style="font-style:normal;font-variant:normal;font-weight:bold;font-stretch:normal;font-size:43.39166641px;font-family:'Roboto Condensed';-inkscape-font-specification:'Roboto Condensed, Bold';font-variant-ligatures:normal;font-variant-caps:normal;font-variant-numeric:normal;font-feature-settings:normal;text-align:start;writing-mode:lr-tb;text-anchor:start;fill:#e0ce66;fill-opacity:1;stroke-width:0.26458332" id="path885"/>
      <path d="m435.5829429626465,78.34482383728027 v-7.902879238128662 h-2.224669933319092 l-3.7289700508117676,7.902879238128662 h-6.038400173187256 l4.279850006103516,-9.068181991577148 q-3.6442298889160156,-2.0127971172332764 -3.6442298889160156,-6.186703205108643 q0,-3.3264119625091553 2.309420108795166,-5.487520217895508 q2.309420108795166,-2.18229603767395 6.271460056304932,-2.18229603767395 h8.750370025634766 v22.924701690673828 zm0,-12.20390796661377 v-5.784142971038818 h-2.7755401134490967 q-1.29243004322052,0 -1.94923996925354,0.9534299969673157 q-0.6356199979782104,0.9322429895401001 -0.6356199979782104,1.99160897731781 q0,1.0169930458068848 0.6568099856376648,1.928048014640808 q0.6568099856376648,0.9110559821128845 1.970420002937317,0.9110559821128845 z" style="font-style:normal;font-variant:normal;font-weight:bold;font-stretch:normal;font-size:43.39166641px;font-family:'Roboto Condensed';-inkscape-font-specification:'Roboto Condensed, Bold';font-variant-ligatures:normal;font-variant-caps:normal;font-variant-numeric:normal;font-feature-settings:normal;text-align:start;writing-mode:lr-tb;text-anchor:start;fill:#e0ce66;fill-opacity:1;stroke-width:0.26458332" id="path887"/>
      <path d="m477.32201766967773,54.78450584411621 q0,-3.262850046157837 1.6949900388717651,-5.445146083831787 q1.7161699533462524,-2.182295083999634 4.597650051116943,-2.182295083999634 q2.945039987564087,0 4.618840217590332,2.182295083999634 q1.6949900388717651,2.18229603767395 1.6949900388717651,5.445146083831787 v1.419551968574524 q0,3.2840371131896973 -1.6949900388717651,5.445145130157471 q-1.673799991607666,2.16110897064209 -4.576469898223877,2.16110897064209 q-2.9238500595092773,0 -4.64001989364624,-2.16110897064209 q-1.6949900388717651,-2.1611080169677734 -1.6949900388717651,-5.445145130157471 zm-1.8221100568771362,-7.2884440422058105 v30.848764419555664 h-6.61044979095459 l-6.165520191192627,-19.97966194152832 v19.97966194152832 h-6.038390159606934 V47.49606132507324 h6.61044979095459 l6.207890033721924,20.00084686279297 V47.49606132507324 zm5.339210033416748,8.707996368408203 q0,1.8856730461120605 0.699180006980896,3.199286937713623 q0.699180006980896,1.3136149644851685 2.118730068206787,1.3136149644851685 q1.3771799802780151,0 2.055180072784424,-1.3136149644851685 q0.699180006980896,-1.313614010810852 0.699180006980896,-3.199286937713623 v-1.419551968574524 q0,-1.8432979583740234 -0.699180006980896,-3.1569130420684814 q-0.6779999732971191,-1.3348020315170288 -2.0975499153137207,-1.3348020315170288 q-1.3983700275421143,0 -2.0975499153137207,1.3348020315170288 q-0.6779900193214417,1.3136149644851685 -0.6779900193214417,3.1569130420684814 zm8.008810043334961,10.169920921325684 v3.135725975036621 h-10.678420066833496 v-3.135725975036621 z" style="font-style:normal;font-variant:normal;font-weight:bold;font-stretch:normal;font-size:43.39166641px;font-family:'Roboto Condensed';-inkscape-font-specification:'Roboto Condensed, Bold';font-variant-ligatures:normal;font-variant-caps:normal;font-variant-numeric:normal;font-feature-settings:normal;text-align:start;writing-mode:lr-tb;text-anchor:start;fill:#e0ce66;fill-opacity:1;stroke-width:0.26458332" id="path889"/>
      <path d="m499.48400497436523,64.38236808776855 l-4.767149925231934,-1.207679033279419 l1.546679973602295,-15.678628921508789 h14.91588020324707 v5.127336025238037 H501.17895126342773 l-0.5720599889755249,6.589261054992676 q1.652609944343567,-1.1441160440444946 3.580660104751587,-1.1441160440444946 q3.8349099159240723,0 5.890079975128174,2.7331669330596924 q2.076359987258911,2.733165979385376 2.076359987258911,7.627440929412842 q0,4.110342979431152 -2.2458600997924805,7.224882125854492 q-2.224669933319092,3.1145339012145996 -6.8011298179626465,3.1145339012145996 q-3.41117000579834,0 -6.186709880828857,-2.3729770183563232 q-2.7755401134490967,-2.3729820251464844 -2.8179099559783936,-6.6528239250183105 h5.932449817657471 q0.2966200113296509,4.046781063079834 3.0509800910949707,4.046781063079834 q1.6949800252914429,0 2.3729801177978516,-1.6526119709014893 q0.699180006980896,-1.673799991607666 0.699180006980896,-4.067968845367432 q0,-2.415355920791626 -0.8898699879646301,-3.898469924926758 q-0.8686800003051758,-1.4831130504608154 -2.754349946975708,-1.4831130504608154 q-1.29243004322052,0 -1.94923996925354,0.5508700013160706 q-0.6567999720573425,0.5296840071678162 -1.080549955368042,1.144116997718811 z" style="font-style:normal;font-variant:normal;font-weight:bold;font-stretch:normal;font-size:43.39166641px;font-family:'Roboto Condensed';-inkscape-font-specification:'Roboto Condensed, Bold';font-variant-ligatures:normal;font-variant-caps:normal;font-variant-numeric:normal;font-feature-settings:normal;text-align:start;writing-mode:lr-tb;text-anchor:start;fill:#e0ce66;fill-opacity:1;stroke-width:0.26458332" id="path891"/>
      <path d="m519.5695762634277,58.78891563415527 l4.936649799346924,8.263060569763184 v0.4025599956512451 l-4.936649799346924,8.263060569763184 h-3.7289700508117676 l4.067969799041748,-8.474934577941895 l-4.067969799041748,-8.453746795654297 zm7.373189926147461,0 l4.936649799346924,8.263060569763184 v0.4025599956512451 l-4.936649799346924,8.263060569763184 h-3.7289700508117676 l4.067969799041748,-8.474934577941895 l-4.067969799041748,-8.453746795654297 z" style="font-style:normal;font-variant:normal;font-weight:bold;font-stretch:normal;font-size:43.39166641px;font-family:'Roboto Condensed';-inkscape-font-specification:'Roboto Condensed, Bold';font-variant-ligatures:normal;font-variant-caps:normal;font-variant-numeric:normal;font-feature-settings:normal;text-align:start;writing-mode:lr-tb;text-anchor:start;fill:#e0ce66;fill-opacity:1;stroke-width:0.26458332" id="path893"/>
    </g>
  </g></g></svg>